<svg width="123" height="45" viewBox="0 0 123 45" fill="none" xmlns="http://www.w3.org/2000/svg">
<path d="M34.2422 42.4883C34.5 42.4883 34.7253 42.4102 34.918 42.2539C35.1107 42.0977 35.2174 41.9023 35.2383 41.668H35.9219C35.9089 41.9102 35.8255 42.1406 35.6719 42.3594C35.5182 42.5781 35.3125 42.7526 35.0547 42.8828C34.7995 43.013 34.5286 43.0781 34.2422 43.0781C33.6667 43.0781 33.2083 42.8867 32.8672 42.5039C32.5286 42.1185 32.3594 41.5924 32.3594 40.9258V40.8047C32.3594 40.3932 32.4349 40.0273 32.5859 39.707C32.737 39.3867 32.9531 39.138 33.2344 38.9609C33.5182 38.7839 33.8529 38.6953 34.2383 38.6953C34.7122 38.6953 35.1055 38.8372 35.418 39.1211C35.7331 39.4049 35.901 39.7734 35.9219 40.2266H35.2383C35.2174 39.9531 35.1133 39.7292 34.9258 39.5547C34.7409 39.3776 34.5117 39.2891 34.2383 39.2891C33.8711 39.2891 33.5859 39.4219 33.3828 39.6875C33.1823 39.9505 33.082 40.332 33.082 40.832V40.9688C33.082 41.4557 33.1823 41.8307 33.3828 42.0938C33.5833 42.3568 33.8698 42.4883 34.2422 42.4883ZM39.8372 41.9414L40.8216 38.7734H41.595L39.8958 43.6523C39.6328 44.3555 39.2148 44.707 38.6419 44.707L38.5052 44.6953L38.2356 44.6445V44.0586L38.4309 44.0742C38.6757 44.0742 38.8658 44.0247 39.0013 43.9258C39.1393 43.8268 39.2526 43.6458 39.3411 43.3828L39.5013 42.9531L37.9934 38.7734H38.7825L39.8372 41.9414ZM46.397 42.043L47.8345 38.7734H48.7369V43H48.0142V39.9258L46.647 43H46.147L44.7525 39.8594V43H44.0298V38.7734H44.9673L46.397 42.043ZM52.9373 41.1992H52.41V43H51.6834V38.7734H52.41V40.5625H52.8827L54.3045 38.7734H55.1795L53.5077 40.8047L55.3202 43H54.4022L52.9373 41.1992ZM60.3956 38.7734H61.1183V43H60.3956V39.918L58.4464 43H57.7238V38.7734H58.4464V41.8594L60.3956 38.7734ZM67.6677 42.4102L67.9177 42.1016C68.1989 41.737 68.3591 41.1901 68.3981 40.4609L68.4645 38.7734H71.1872V42.4102H71.7302V44.2422H71.0075V43H68.0583V44.2422H67.3356L67.3395 42.4102H67.6677ZM68.5231 42.4102H70.4645V39.4414H69.1637L69.1208 40.4492C69.0765 41.2904 68.8773 41.944 68.5231 42.4102ZM77.7158 38.7734V43H76.9892V39.3711H75.5517L75.4658 40.9531C75.4189 41.6797 75.2965 42.1992 75.0986 42.5117C74.9033 42.8242 74.5921 42.987 74.165 43H73.8759V42.3633L74.083 42.3477C74.3173 42.3216 74.4853 42.1862 74.5869 41.9414C74.6884 41.6966 74.7535 41.2435 74.7822 40.582L74.8603 38.7734H77.7158ZM83.8264 38.7734V43H83.0998V41.3555H82.01L81.0139 43H80.2327L81.2952 41.2461C81.0243 41.1471 80.816 40.9948 80.6702 40.7891C80.5269 40.5807 80.4553 40.3385 80.4553 40.0625C80.4553 39.6771 80.5998 39.3672 80.8889 39.1328C81.178 38.8958 81.5647 38.776 82.0491 38.7734H83.8264ZM81.1819 40.0703C81.1819 40.276 81.2522 40.4427 81.3928 40.5703C81.5334 40.6953 81.7196 40.7591 81.9514 40.7617H83.0998V39.3594H82.0608C81.7926 39.3594 81.579 39.4258 81.4202 39.5586C81.2613 39.6888 81.1819 39.8594 81.1819 40.0703ZM93.782 41.1641H93.2742V43H92.5516V41.1641H92.0438L90.8602 43H89.9461L91.4578 40.8125L90.0906 38.7734H90.9656L92.0555 40.5234H92.5516V38.7734H93.2742V40.5234H93.7664L94.8641 38.7734H95.7391L94.368 40.8164L95.8797 43H94.9656L93.782 41.1641ZM100.99 38.7734H101.713V43H100.99V39.918L99.0411 43H98.3184V38.7734H99.0411V41.8594L100.99 38.7734ZM106.917 39.9297C106.917 39.7318 106.842 39.5755 106.691 39.4609C106.54 39.3438 106.333 39.2852 106.07 39.2852C105.814 39.2852 105.601 39.3516 105.429 39.4844C105.26 39.6172 105.175 39.7734 105.175 39.9531H104.456C104.456 39.5859 104.61 39.2852 104.917 39.0508C105.225 38.8164 105.609 38.6992 106.07 38.6992C106.564 38.6992 106.95 38.806 107.226 39.0195C107.502 39.2305 107.64 39.5326 107.64 39.9258C107.64 40.1159 107.583 40.2904 107.468 40.4492C107.354 40.6081 107.191 40.7344 106.98 40.8281C107.472 40.9948 107.718 41.3229 107.718 41.8125C107.718 42.2005 107.568 42.5078 107.269 42.7344C106.969 42.9609 106.57 43.0742 106.07 43.0742C105.583 43.0742 105.18 42.9557 104.863 42.7188C104.548 42.4792 104.39 42.1562 104.39 41.75H105.109C105.109 41.9557 105.2 42.1328 105.382 42.2812C105.567 42.4271 105.796 42.5 106.07 42.5C106.346 42.5 106.568 42.4362 106.738 42.3086C106.907 42.181 106.992 42.0156 106.992 41.8125C106.992 41.5755 106.92 41.4062 106.777 41.3047C106.636 41.2005 106.416 41.1484 106.117 41.1484H105.394V40.5391H106.179C106.671 40.526 106.917 40.3229 106.917 39.9297ZM113.829 43H113.106V41.1953H111.165V43H110.438V38.7734H111.165V40.6055H113.106V38.7734H113.829V43ZM119.447 38.7734H120.17V43H119.447V39.918L117.498 43H116.775V38.7734H117.498V41.8594L119.447 38.7734Z" fill="black"/>
<path d="M15.9785 26.4082C15.9785 25.2832 15.5801 24.416 14.7832 23.8066C13.998 23.1973 12.5742 22.582 10.5117 21.9609C8.44922 21.3398 6.80859 20.6484 5.58984 19.8867C3.25781 18.4219 2.0918 16.5117 2.0918 14.1562C2.0918 12.0938 2.92969 10.3945 4.60547 9.05859C6.29297 7.72266 8.47852 7.05469 11.1621 7.05469C12.9434 7.05469 14.5312 7.38281 15.9258 8.03906C17.3203 8.69531 18.416 9.63281 19.2129 10.8516C20.0098 12.0586 20.4082 13.4004 20.4082 14.877H15.9785C15.9785 13.541 15.5566 12.498 14.7129 11.748C13.8809 10.9863 12.6855 10.6055 11.127 10.6055C9.67383 10.6055 8.54297 10.916 7.73438 11.5371C6.9375 12.1582 6.53906 13.0254 6.53906 14.1387C6.53906 15.0762 6.97266 15.8613 7.83984 16.4941C8.70703 17.1152 10.1367 17.7246 12.1289 18.3223C14.1211 18.9082 15.7207 19.582 16.9277 20.3438C18.1348 21.0938 19.0195 21.9609 19.582 22.9453C20.1445 23.918 20.4258 25.0605 20.4258 26.373C20.4258 28.5059 19.6055 30.2051 17.9648 31.4707C16.3359 32.7246 14.1211 33.3516 11.3203 33.3516C9.46875 33.3516 7.76367 33.0117 6.20508 32.332C4.6582 31.6406 3.45117 30.6914 2.58398 29.4844C1.72852 28.2773 1.30078 26.8711 1.30078 25.2656H5.74805C5.74805 26.7188 6.22852 27.8438 7.18945 28.6406C8.15039 29.4375 9.52734 29.8359 11.3203 29.8359C12.8672 29.8359 14.0273 29.5254 14.8008 28.9043C15.5859 28.2715 15.9785 27.4395 15.9785 26.4082ZM40.5703 23.6836C40.5703 26.625 39.9023 28.9746 38.5664 30.7324C37.2305 32.4785 35.4375 33.3516 33.1875 33.3516C31.1016 33.3516 29.4316 32.666 28.1777 31.2949V40.3125H23.9062V13.9805H27.8438L28.0195 15.9141C29.2734 14.3906 30.9785 13.6289 33.1348 13.6289C35.4551 13.6289 37.2715 14.4961 38.584 16.2305C39.9082 17.9531 40.5703 20.3496 40.5703 23.4199V23.6836ZM36.3164 23.3145C36.3164 21.416 35.9355 19.9102 35.1738 18.7969C34.4238 17.6836 33.3457 17.127 31.9395 17.127C30.1934 17.127 28.9395 17.8477 28.1777 19.2891V27.7266C28.9512 29.2031 30.2168 29.9414 31.9746 29.9414C33.334 29.9414 34.3945 29.3965 35.1562 28.3066C35.9297 27.2051 36.3164 25.541 36.3164 23.3145ZM55.7227 31.1367C54.4688 32.6133 52.6875 33.3516 50.3789 33.3516C48.3164 33.3516 46.752 32.748 45.6855 31.541C44.6309 30.334 44.1035 28.5879 44.1035 26.3027V13.9805H48.375V26.25C48.375 28.6641 49.377 29.8711 51.3809 29.8711C53.4551 29.8711 54.8555 29.127 55.582 27.6387V13.9805H59.8535V33H55.8281L55.7227 31.1367ZM69.5566 9.35742V13.9805H72.9141V17.1445H69.5566V27.7617C69.5566 28.4883 69.6973 29.0156 69.9785 29.3438C70.2715 29.6602 70.7871 29.8184 71.5254 29.8184C72.0176 29.8184 72.5156 29.7598 73.0195 29.6426V32.9473C72.0469 33.2168 71.1094 33.3516 70.207 33.3516C66.9258 33.3516 65.2852 31.541 65.2852 27.9199V17.1445H62.1562V13.9805H65.2852V9.35742H69.5566ZM80.1562 13.9805L80.2793 16.1777C81.6855 14.4785 83.5312 13.6289 85.8164 13.6289C89.7773 13.6289 91.793 15.8965 91.8633 20.4316V33H87.5918V20.6777C87.5918 19.4707 87.3281 18.5801 86.8008 18.0059C86.2852 17.4199 85.4355 17.127 84.252 17.127C82.5293 17.127 81.2461 17.9062 80.4023 19.4648V33H76.1309V13.9805H80.1562ZM100.775 33H96.5039V13.9805H100.775V33ZM96.2402 9.04102C96.2402 8.38477 96.4453 7.83984 96.8555 7.40625C97.2773 6.97266 97.875 6.75586 98.6484 6.75586C99.4219 6.75586 100.02 6.97266 100.441 7.40625C100.863 7.83984 101.074 8.38477 101.074 9.04102C101.074 9.68555 100.863 10.2246 100.441 10.6582C100.02 11.0801 99.4219 11.291 98.6484 11.291C97.875 11.291 97.2773 11.0801 96.8555 10.6582C96.4453 10.2246 96.2402 9.68555 96.2402 9.04102ZM111.621 24.8438L109.723 26.7949V33H105.451V6H109.723V21.5742L111.059 19.9043L116.314 13.9805H121.447L114.381 21.9082L122.203 33H117.264L111.621 24.8438Z" fill="black"/>
</svg>
